<svg xmlns="http://www.w3.org/2000/svg" viewBox="0 0 32 32" width="32" height="32">
  <!-- Professional medical heart with heartbeat line - Vibrant red for visibility -->
  <!-- Heart outline -->
  <path d="M16 27c-0.4 0-0.8-0.2-1.1-0.4-2.8-2.5-8.9-8.5-8.9-13.1 0-3.6 2.9-6.5 6.5-6.5 1.9 0 3.6 0.8 4.8 2.1 1.2-1.3 2.9-2.1 4.8-2.1 3.6 0 6.5 2.9 6.5 6.5 0 4.6-6.1 10.6-8.9 13.1-0.3 0.2-0.7 0.4-1.1 0.4zm-3.5-18c-2.5 0-4.5 2-4.5 4.5 0 3.4 5.1 8.7 7.5 10.9 0.2 0.1 0.5 0.1 0.7 0 2.4-2.2 7.5-7.5 7.5-10.9 0-2.5-2-4.5-4.5-4.5-1.6 0-3 0.8-3.8 2.1l-0.7 1-0.7-1c-0.8-1.3-2.2-2.1-3.8-2.1z" fill="#E63946"/>
  
  <!-- Heartbeat pulse line -->
  <path d="M7 16h4l2-4 2 8 2-4h4" stroke="#E63946" stroke-width="1.5" fill="none" stroke-linecap="round" stroke-linejoin="round"/>
</svg>
